<svg width="258" height="258" viewBox="0 0 258 258" fill="none" xmlns="http://www.w3.org/2000/svg">
<path d="M208.159 40.457C208.141 40.1815 207.903 39.9727 207.628 39.9906L203.137 40.2834C202.862 40.3013 202.653 40.5393 202.671 40.8148C202.689 41.0904 202.927 41.2992 203.203 41.2813L207.194 41.021L207.454 45.0126C207.472 45.2881 207.71 45.4969 207.986 45.479C208.261 45.461 208.47 45.2231 208.452 44.9475L208.159 40.457ZM145.537 112.036L147.49 109.81L146.738 109.151L144.785 111.376L145.537 112.036ZM151.396 105.359L155.302 100.908L154.551 100.249L150.644 104.7L151.396 105.359ZM159.208 96.4573L163.115 92.0063L162.363 91.3467L158.457 95.7977L159.208 96.4573ZM167.021 87.5553L170.927 83.1042L170.176 82.4446L166.269 86.8957L167.021 87.5553ZM174.833 78.6532L178.74 74.2022L177.988 73.5426L174.082 77.9936L174.833 78.6532ZM182.646 69.7511L186.552 65.3001L185.8 64.6405L181.894 69.0915L182.646 69.7511ZM190.458 60.849L194.364 56.398L193.613 55.7384L189.707 60.1894L190.458 60.849ZM198.271 51.947L202.177 47.4959L201.425 46.8363L197.519 51.2874L198.271 51.947ZM206.083 43.0449L208.036 40.8194L207.285 40.1598L205.332 42.3853L206.083 43.0449ZM208.658 40.4245C208.622 39.8734 208.147 39.4558 207.595 39.4917L198.614 40.0772C198.063 40.1131 197.646 40.589 197.682 41.1401C197.718 41.6912 198.193 42.1089 198.745 42.0729L206.728 41.5525L207.248 49.5356C207.284 50.0867 207.76 50.5043 208.311 50.4684C208.862 50.4325 209.28 49.9566 209.244 49.4055L208.658 40.4245ZM145.912 112.366L147.866 110.14L146.362 108.821L144.409 111.047L145.912 112.366ZM151.772 105.689L155.678 101.238L154.175 99.919L150.269 104.37L151.772 105.689ZM159.584 96.7872L163.49 92.3361L161.987 91.0169L158.081 95.4679L159.584 96.7872ZM167.397 87.8851L171.303 83.434L169.8 82.1148L165.894 86.5659L167.397 87.8851ZM175.209 78.983L179.115 74.532L177.612 73.2127L173.706 77.6638L175.209 78.983ZM183.022 70.0809L186.928 65.6299L185.425 64.3107L181.518 68.7617L183.022 70.0809ZM190.834 61.1789L194.74 56.7278L193.237 55.4086L189.331 59.8596L190.834 61.1789ZM198.647 52.2768L202.553 47.8257L201.05 46.5065L197.143 50.9576L198.647 52.2768ZM206.459 43.3747L208.412 41.1492L206.909 39.83L204.956 42.0555L206.459 43.3747Z" fill="#797979"/>
<path d="M51.0325 219.499C50.757 219.517 50.519 219.308 50.5011 219.033L50.2083 214.542C50.1904 214.267 50.3992 214.029 50.6747 214.011C50.9503 213.993 51.1882 214.201 51.2062 214.477L51.4664 218.469L55.458 218.208C55.7335 218.19 55.9715 218.399 55.9894 218.675C56.0074 218.95 55.7986 219.188 55.523 219.206L51.0325 219.499ZM113.875 148.113L111.922 150.339L111.171 149.679L113.124 147.454L113.875 148.113ZM108.016 154.79L104.11 159.241L103.358 158.581L107.264 154.13L108.016 154.79ZM100.204 163.692L96.2974 168.143L95.5458 167.483L99.452 163.032L100.204 163.692ZM92.3912 172.594L88.4849 177.045L87.7333 176.385L91.6395 171.934L92.3912 172.594ZM84.5787 181.496L80.6725 185.947L79.9209 185.287L83.8271 180.836L84.5787 181.496ZM76.7663 190.398L72.86 194.849L72.1084 194.19L76.0147 189.739L76.7663 190.398ZM68.9538 199.3L65.0476 203.751L64.296 203.092L68.2022 198.641L68.9538 199.3ZM61.1414 208.202L57.2351 212.653L56.4835 211.994L60.3898 207.543L61.1414 208.202ZM53.3289 217.104L51.3758 219.33L50.6242 218.67L52.5773 216.445L53.3289 217.104ZM51.0651 219.998C50.5139 220.034 50.0381 219.616 50.0021 219.065L49.4167 210.084C49.3807 209.533 49.7984 209.057 50.3495 209.021C50.9006 208.985 51.3765 209.403 51.4124 209.954L51.9328 217.937L59.9159 217.417C60.467 217.381 60.9429 217.798 60.9788 218.35C61.0148 218.901 60.5971 219.377 60.046 219.412L51.0651 219.998ZM114.251 148.443L112.298 150.669L110.795 149.349L112.748 147.124L114.251 148.443ZM108.392 155.12L104.486 159.571L102.982 158.251L106.889 153.8L108.392 155.12ZM100.579 164.022L96.6732 168.473L95.17 167.154L99.0762 162.702L100.579 164.022ZM92.767 172.924L88.8607 177.375L87.3575 176.056L91.2637 171.605L92.767 172.924ZM84.9545 181.826L81.0483 186.277L79.5451 184.958L83.4513 180.507L84.9545 181.826ZM77.1421 190.728L73.2358 195.179L71.7326 193.86L75.6388 189.409L77.1421 190.728ZM69.3296 199.63L65.4234 204.081L63.9202 202.762L67.8264 198.311L69.3296 199.63ZM61.5172 208.532L57.6109 212.983L56.1077 211.664L60.014 207.213L61.5172 208.532ZM53.7047 217.434L51.7516 219.66L50.2484 218.34L52.2015 216.115L53.7047 217.434Z" fill="#797979"/>
</svg>
